# xmcd CD database file
#
# Track frame offsets:
#	150
#	23280
#	41168
#
# Disc length: 853 seconds
#
# Revision: 0
# Processed by: cddbd v1.5.1PL0 Copyright (c) Steve Scherf et al.
# Submitted via: CDex 1.51
#
DISCID=17035303
DTITLE=Les.R - 恋の魔法
DYEAR=2005
DGENRE=Pop
TTITLE0=恋の魔法
TTITLE1=赤い糸 (Acoustic.Ver.)
TTITLE2=恋の魔法 (Instrumental)
EXTD=YEAR: 2005/07/27
EXTT0=
EXTT1=
EXTT2=
PLAYORDER=
